<svg width="860" height="320" viewBox="0 0 860 320" fill="none" xmlns="http://www.w3.org/2000/svg" role="img" aria-label="Return distribution with fat tails">
<line x1="40" y1="280.5" x2="820" y2="280.5" stroke="#14181F" stroke-opacity="0.25" stroke-width="2"></line>
<rect x="41.5" y="241.6" width="25.9" height="38.4" rx="2" fill="#FF5A3C"></rect><rect x="70.4" y="241.6" width="25.9" height="38.4" rx="2" fill="#FF5A3C"></rect><rect x="99.3" y="258.4" width="25.9" height="21.6" rx="2" fill="#DCD4BD"></rect><rect x="128.2" y="258.4" width="25.9" height="21.6" rx="2" fill="#DCD4BD"></rect><rect x="157.1" y="247.5" width="25.9" height="32.5" rx="2" fill="#DCD4BD"></rect><rect x="185.9" y="230.6" width="25.9" height="49.4" rx="2" fill="#DCD4BD"></rect><rect x="214.8" y="208.4" width="25.9" height="71.6" rx="2" fill="#DCD4BD"></rect><rect x="243.7" y="181.3" width="25.9" height="98.7" rx="2" fill="#DCD4BD"></rect><rect x="272.6" y="150.5" width="25.9" height="129.5" rx="2" fill="#DCD4BD"></rect><rect x="301.5" y="118.3" width="25.9" height="161.7" rx="2" fill="#DCD4BD"></rect><rect x="330.4" y="87.8" width="25.9" height="192.2" rx="2" fill="#DCD4BD"></rect><rect x="359.3" y="62.6" width="25.9" height="217.4" rx="2" fill="#DCD4BD"></rect><rect x="388.2" y="45.9" width="25.9" height="234.1" rx="2" fill="#DCD4BD"></rect><rect x="417.1" y="40.0" width="25.9" height="240.0" rx="2" fill="#DCD4BD"></rect><rect x="445.9" y="45.9" width="25.9" height="234.1" rx="2" fill="#DCD4BD"></rect><rect x="474.8" y="62.6" width="25.9" height="217.4" rx="2" fill="#DCD4BD"></rect><rect x="503.7" y="87.8" width="25.9" height="192.2" rx="2" fill="#DCD4BD"></rect><rect x="532.6" y="118.3" width="25.9" height="161.7" rx="2" fill="#DCD4BD"></rect><rect x="561.5" y="150.5" width="25.9" height="129.5" rx="2" fill="#DCD4BD"></rect><rect x="590.4" y="181.3" width="25.9" height="98.7" rx="2" fill="#DCD4BD"></rect><rect x="619.3" y="208.4" width="25.9" height="71.6" rx="2" fill="#DCD4BD"></rect><rect x="648.2" y="230.6" width="25.9" height="49.4" rx="2" fill="#DCD4BD"></rect><rect x="677.1" y="247.5" width="25.9" height="32.5" rx="2" fill="#DCD4BD"></rect><rect x="705.9" y="258.4" width="25.9" height="21.6" rx="2" fill="#DCD4BD"></rect><rect x="734.8" y="258.4" width="25.9" height="21.6" rx="2" fill="#DCD4BD"></rect><rect x="763.7" y="241.6" width="25.9" height="38.4" rx="2" fill="#FF5A3C"></rect><rect x="792.6" y="241.6" width="25.9" height="38.4" rx="2" fill="#FF5A3C"></rect>
<path d="M 40.0 276.4 L 46.5 275.9 L 53.0 275.3 L 59.5 274.7 L 66.0 273.9 L 72.5 273.1 L 79.0 272.2 L 85.5 271.1 L 92.0 270.0 L 98.5 268.7 L 105.0 267.3 L 111.5 265.7 L 118.0 264.1 L 124.5 262.2 L 131.0 260.2 L 137.5 258.0 L 144.0 255.6 L 150.5 253.0 L 157.0 250.2 L 163.5 247.2 L 170.0 243.9 L 176.5 240.5 L 183.0 236.8 L 189.5 232.9 L 196.0 228.7 L 202.5 224.3 L 209.0 219.7 L 215.5 214.8 L 222.0 209.7 L 228.5 204.4 L 235.0 198.8 L 241.5 193.1 L 248.0 187.1 L 254.5 181.0 L 261.0 174.8 L 267.5 168.4 L 274.0 161.8 L 280.5 155.2 L 287.0 148.5 L 293.5 141.8 L 300.0 135.1 L 306.5 128.4 L 313.0 121.7 L 319.5 115.2 L 326.0 108.8 L 332.5 102.5 L 339.0 96.4 L 345.5 90.6 L 352.0 85.0 L 358.5 79.8 L 365.0 74.8 L 371.5 70.2 L 378.0 66.1 L 384.5 62.3 L 391.0 59.0 L 397.5 56.2 L 404.0 53.8 L 410.5 52.0 L 417.0 50.7 L 423.5 49.9 L 430.0 49.6 L 436.5 49.9 L 443.0 50.7 L 449.5 52.0 L 456.0 53.8 L 462.5 56.2 L 469.0 59.0 L 475.5 62.3 L 482.0 66.1 L 488.5 70.2 L 495.0 74.8 L 501.5 79.8 L 508.0 85.0 L 514.5 90.6 L 521.0 96.4 L 527.5 102.5 L 534.0 108.8 L 540.5 115.2 L 547.0 121.7 L 553.5 128.4 L 560.0 135.1 L 566.5 141.8 L 573.0 148.5 L 579.5 155.2 L 586.0 161.8 L 592.5 168.4 L 599.0 174.8 L 605.5 181.0 L 612.0 187.1 L 618.5 193.1 L 625.0 198.8 L 631.5 204.4 L 638.0 209.7 L 644.5 214.8 L 651.0 219.7 L 657.5 224.3 L 664.0 228.7 L 670.5 232.9 L 677.0 236.8 L 683.5 240.5 L 690.0 243.9 L 696.5 247.2 L 703.0 250.2 L 709.5 253.0 L 716.0 255.6 L 722.5 258.0 L 729.0 260.2 L 735.5 262.2 L 742.0 264.1 L 748.5 265.7 L 755.0 267.3 L 761.5 268.7 L 768.0 270.0 L 774.5 271.1 L 781.0 272.2 L 787.5 273.1 L 794.0 273.9 L 800.5 274.7 L 807.0 275.3 L 813.5 275.9 L 820.0 276.4" stroke="#C2EB2B" stroke-width="4" stroke-linecap="round" stroke-linejoin="round" fill="none"></path>
<circle cx="54.44444444444444" cy="241.6" r="5" fill="#FF5A3C" stroke="#14181F" stroke-width="2"></circle>
<circle cx="805.5555555555555" cy="241.6" r="5" fill="#FF5A3C" stroke="#14181F" stroke-width="2"></circle>
</svg>